#!OML:ASF E:\Steps\Project 1\Capture day 1\Session 2\Subject.ASF
:FULLY-SPECIFIED
:DEGREES
283
root 11.3276 18.8734 10.2679 -148.101 0.280044 176.022
lowerback -12.546 -1.55619 -1.9583
upperback 1.45043 -1.89166 1.22054
thorax 8.7189 -1.04979 2.03275
lowerneck -2.44787 -4.29738 0.29705
upperneck 15.6979 -5.08737 -0.244633
head 5.10328 -2.20393 -0.358256
rclavicle 1.68967e-014 2.14687e-014
rhumerus -28.534 8.72028 -74.8983
rradius 46.7805
rwrist -8.11488
rhand -7.03097 -47.5589
rfingers 7.12502
rthumb 18.841 -76.6665
lclavicle 1.68967e-014 2.14687e-014
lhumerus -25.7477 -18.9735 77.8103
lradius 43.7766
lwrist 4.95606
lhand -23.7346 -14.7811
lfingers 7.12502
lthumb 2.73368 15.1811
rfemur -48.0642 -2.58801 17.5032
rtibia 25.2631
rfoot -17.9537 -5.77362
rtoes -18.8472
lfemur -49.8889 -11.4534 -19.848
ltibia 56.3966
lfoot -12.2742 6.37745
ltoes -44.3275
284
root 11.3805 18.9098 10.2088 -148.212 0.0113601 176.224
lowerback -12.8544 -1.56235 -2.04742
upperback 1.21735 -1.89563 1.30545
thorax 8.64938 -1.05848 2.16888
lowerneck -1.76967 -4.44944 0.0814329
upperneck 15.7929 -5.26391 0.0579907
head 5.03245 -2.26436 -0.223228
rclavicle -9.54166e-015 1.35174e-014
rhumerus -29.4858 8.67673 -75.3056
rradius 46.5757
rwrist -8.13774
rhand -7.68268 -46.8127
rfingers 7.12502
rthumb 18.2141 -75.98
lclavicle -9.54166e-015 1.35174e-014
lhumerus -26.6698 -18.7976 78.1469
lradius 43.3244
lwrist 5.26479
lhand -23.9244 -14.9958
lfingers 7.12502
lthumb 2.55036 14.9687
rfemur -47.1354 -2.31455 17.8681
rtibia 24.362
rfoot -17.8137 -5.72625
rtoes -17.9984
lfemur -49.7141 -11.9893 -19.5821
ltibia 54.406
lfoot -12.6363 5.77607
ltoes -44.0982
285
root 11.4289 18.9394 10.1397 -148.293 -0.215725 176.488
lowerback -13.183 -1.41823 -1.96789
upperback 1.18897 -1.71182 1.28072
thorax 8.79299 -0.967307 2.12953
lowerneck -2.48253 -4.69281 0.350314
upperneck 16.5156 -5.59222 0.0252796
head 5.36841 -2.39129 -0.317791
rclavicle -2.08724e-014 -4.37326e-015
rhumerus -29.8693 7.94699 -75.6915
rradius 46.061
rwrist -7.92171
rhand -7.72194 -46.9171
rfingers 7.12502
rthumb 18.1764 -76.0878
lclavicle -2.08724e-014 -4.37326e-015
lhumerus -27.0074 -18.654 78.2077
lradius 43.0021
lwrist 5.30082
lhand -23.8288 -14.6636
lfingers 7.12502
lthumb 2.64273 15.2998
rfemur -46.1432 -2.04897 18.2672
rtibia 23.263
rfoot -17.5362 -5.53539
rtoes -16.9707
lfemur -49.4902 -12.6452 -19.1935
ltibia 52.3168
lfoot -12.9285 5.47355
ltoes -43.4229
286
root 11.471 18.9636 10.0683 -148.398 -0.381889 176.678
lowerback -13.67 -1.37826 -1.98268
upperback 1.18206 -1.65559 1.31773
thorax 9.06357 -0.94571 2.1818
lowerneck -2.91984 -4.74188 0.451527
upperneck 16.9666 -5.64409 -0.0530463
head 5.57793 -2.40175 -0.376821
rclavicle 9.54166e-015 -1.35174e-014
rhumerus -30.1181 7.47549 -75.995
rradius 45.4126
rwrist -7.63772
rhand -7.52985 -47.1077
rfingers 7.12502
rthumb 18.3612 -76.2611
lclavicle 9.54166e-015 -1.35174e-014
lhumerus -27.4652 -17.9304 78.2867
lradius 42.6657
lwrist 5.06017
lhand -24.2151 -14.8306
lfingers 7.12502
lthumb 2.26958 15.1371
rfemur -45.1847 -1.86387 18.5928
rtibia 22.2862
rfoot -17.3325 -5.42797
rtoes -17.4826
lfemur -49.1997 -13.3157 -18.9095
ltibia 50.2675
lfoot -13.0861 5.30106
ltoes -43.6194
287
root 11.5141 18.9882 10.0033 -148.651 -0.50473 176.627
lowerback -13.9265 -1.40919 -2.29255
upperback 1.11871 -1.63978 1.28291
thorax 9.14929 -0.953632 2.31992
lowerneck -2.62481 -4.73542 0.61298
upperneck 16.7635 -5.64869 -0.0183538
head 5.46037 -2.39382 -0.382679
rclavicle 2.98177e-015 -1.63003e-014
rhumerus -30.6166 7.1177 -76.358
rradius 44.9032
rwrist -7.43354
rhand -7.64286 -46.7486
rfingers 7.12502
rthumb 18.2525 -75.9123
lclavicle 2.98177e-015 -1.63003e-014
lhumerus -28.1605 -17.3719 78.3575
lradius 42.3576
lwrist 4.90248
lhand -18.8547 -11.0827
lfingers 7.12502
lthumb 7.44536 18.7663
rfemur -44.1652 -1.80649 18.6516
rtibia 21.4591
rfoot -17.2165 -5.45135
rtoes -18.0824
lfemur -48.69 -13.9953 -18.9132
ltibia 48.1786
lfoot -13.1297 5.26413
ltoes -44.3372
